<svg id="Layer_1" data-name="Layer 1" xmlns="http://www.w3.org/2000/svg" viewBox="0 0 1000 982.89"><path d="M0,64.62c5.51-21,16-38.29,35.92-48.54A66.58,66.58,0,1,1,2.78,94.25C1.94,91.51.93,88.82,0,86.1Z" transform="translate(0 -8.55)"/><path d="M0,234.55c6-14.9,15.33-25.5,32.75-25.79a33,33,0,0,1,33.36,26.89c2.9,15.76-6.27,32-21.19,37.45A33.44,33.44,0,0,1,4.06,257.67c-1.37-2.49-2.71-5-4.06-7.5Z" transform="translate(0 -8.55)"/><path d="M484.65,424.17c.65,1.65,1.33,3.29,1.93,4.95,11.33,31.6,41.35,50.14,73.39,45.34s56-32.1,56.74-65.95c.55-27,.12-54,.16-81,0-2.14.24-4.28.56-9.58,11.5,12.39,21.62,22.3,30.61,33.15C740,462.11,739.21,623.78,647,734.09c-6.91,8.25-14.08,8.85-23.41,7.54-11.92-27.87-30.78-50.11-57.37-65.34-73.37-42-166.9-5.74-192.83,74.85-1.77,5.49-3.83,8.19-10.14,9.33-32.62,5.9-58.07,23.39-77.73,51.38C196.59,765.46,139.67,694.51,122,596c-19.32-107.61,14.22-199.32,93.75-276.95.48,4.34.95,6.63,1,8.93.06,20.17,0,40.35.05,60.53.12,35.33,22.29,63.33,54.34,68.74,34.37,5.8,64.07-12.25,76.13-46.29a4.41,4.41,0,0,1,2.64-3.18V418c0,41.33-.28,82.67.13,124A66.59,66.59,0,0,0,468.48,583.6c10.77-13.21,14.91-28.52,14.84-45.36-.14-34.82,0-69.64,0-104.47v-9.36Zm154.62,39.09c3.68,24.09,9.33,47,10.13,70.09.81,23.38-3.17,46.93-5.14,71.45l29.51,8c14.4-54.46,12.53-106.91-5.67-159.7ZM631,635.38l-16.38,31.16,28,17.76,18.78-35.58Z" transform="translate(0 -8.55)"/><path d="M601,779.92l17.57-3.28c44.84-8.36,88.35,21.12,96,66.09,1.91,11.17,5.45,15.62,17.32,18,12.89,2.56,24.88,10.27,36.87,16.48,5.32,2.77,9.69,7.38,14.87,11.45,4.39-6.63,8.12-12.69,12.26-18.46C813.4,845.8,843.21,836,871,845.38s46.76,35.35,44.81,64.93c-.82,12.5,3,17.08,14.35,21.09,24.36,8.64,40.38,26.52,48.8,51a41,41,0,0,1,1.53,5.62,13.48,13.48,0,0,1-.36,3.39H18.23c-5.1-21.77,3.16-41.31,22.69-51.12,7.26-3.64,9.3-7.87,9.47-15.6.84-38.89,25-70.05,61.15-79.93,35.71-9.77,71.7,4.58,92.93,37.05,2.45,3.75,4.86,7.52,7.2,11.15,41.71-17.56,41.71-17.56,86.55-14,6.71-59.26,39.86-89.21,101.13-87.64,2.52-33,15.26-60.55,42.21-80.3a97.83,97.83,0,0,1,57.33-19.21C547.23,691,578.55,717.91,601,779.92Zm-101.32,62c27.59.17,50.48-22.66,50.33-50.2a49.82,49.82,0,0,0-49.73-49.59c-27.89-.12-50.51,22.35-50.34,50A50.29,50.29,0,0,0,499.71,841.87Zm134.7.09a33.52,33.52,0,0,0-34.48,32.37c-.57,18.17,14.47,33.8,32.79,34.09a32.86,32.86,0,0,0,33.69-31.91C667,857.64,652.94,842.46,634.41,842ZM366.83,941.71c18.38-.06,33.52-15.35,33.26-33.59A33.66,33.66,0,0,0,367,875.22a33.25,33.25,0,1,0-.19,66.49ZM866.7,891.38a17,17,0,0,0-17.38-16.11c-9.29.41-16.1,8-15.64,17.52a16.2,16.2,0,0,0,16.57,15.6C859.31,908.27,867,900.32,866.7,891.38ZM216.64,941.82a16.42,16.42,0,0,0-16.92-16.33,16.05,16.05,0,0,0-16.18,15.93,16.75,16.75,0,0,0,16.28,17.08A16.93,16.93,0,0,0,216.64,941.82ZM116.51,925.11a16.47,16.47,0,0,0,16.54-16.7,16,16,0,0,0-15.81-16.26,16.53,16.53,0,0,0-17.25,16C99.77,917.12,107.47,925,116.51,925.11Zm633.29.39a16.17,16.17,0,0,0-16.24,16.83,16.45,16.45,0,0,0,32.9-.42A16.14,16.14,0,0,0,749.8,925.5Z" transform="translate(0 -8.55)"/><path d="M607.45,140l-15.09-29.9c-29.84,17-61.91,15.25-93.79,15.08-32.55-.16-65.1.26-97.64-.11-37.63-.43-71.8,9.88-102.77,31.21-11.78,8.12-23.74,16-35.74,23.78s-25.2,12-39.63,11.55c-10.16-.32-17.41-5.45-21-14.74-3.53-9-1.12-16.42,6.19-23.56,32.87-32.1,65.84-63.83,107-85.71,49.68-26.44,102.37-41.83,158.68-42,173.13-.5,346.28-.26,519.41-.29,1.92,0,3.84.2,6.38.34V141.89H987.91c-77.46,0-154.92.13-232.37-.17a29.75,29.75,0,0,0-21,7.78c-17.25,14.86-34.68,29.55-52.56,43.65-26.39,20.8-56.65,31.53-90.3,31.75q-62,.4-124,0c-20.1-.09-34.33-14.37-34.16-33.54.17-18.44,14.61-32.67,34-32.9,23.43-.27,46.87.2,70.29-.23C562.21,157.82,585.2,151.4,607.45,140Z" transform="translate(0 -8.55)"/><path d="M383.18,449.57c0-29.28.07-58.56,0-87.84-.08-21.64-13.82-36.63-33.25-36.58s-33.17,15.18-33.32,36.73c-.07,10.08.16,20.18-.09,30.25-.48,18.59-14.8,32.86-32.88,33.06a33,33,0,0,1-33.46-32.48c-.42-31.55-.25-63.11.06-94.66a11.75,11.75,0,0,1,4.55-8.44c49.7-31.91,104.09-48.06,163.25-47.38,3.53.05,7.41,2,10.48,4,11.71,7.72,24.27,12.26,38.43,12.11,9.1-.09,18.24.48,27.32-.08,33.53-2,59.09,17,85.91,32.46,2,1.18,3.2,5.46,3.22,8.31.21,35.79.34,71.58,0,107.36-.16,20.88-14.38,35.42-33.63,35.32s-32.55-14.5-33-35.77c-.15-6.5.08-13.07-.81-19.47a33,33,0,0,0-65-1,76,76,0,0,0-1,13.58c-.07,46.85.06,93.7-.1,140.54-.07,19.23-11.54,33-28.42,35-21.27,2.56-37.88-12-38.12-34.3C382.94,510.08,383.19,479.82,383.18,449.57Z" transform="translate(0 -8.55)"/><path d="M405.28,158.78c-2.06,16.91-4,33-6,48.78C238.13,227.68,130.92,313,90,475.53,64.28,638.41,127.22,758.24,265.11,840.39c-11.58,2.62-25.2,5.9-38.93,8.59-2.15.42-5.49-1.25-7.17-3-12.32-12.91-27.55-21.16-42.91-29.91-11.77-6.7-21.51-17.67-30.79-28C-7.22,618.73,28.06,355.59,219.76,232.87c7.41-4.74,16.57-6.71,24.84-10.14,12.83-5.32,26.2-9.7,38.24-16.43,15.28-8.55,29.26-19.4,44.19-28.63A129.53,129.53,0,0,1,405.28,158.78Z" transform="translate(0 -8.55)"/><path d="M705.89,766.1l-28.35-16.47c59.78-78.48,84-166.28,67.56-263.48S676.82,314.19,595,259.59c14.37-2.55,27.92-5.32,41.61-7.1,3.17-.41,7.36,1.89,10.1,4.14,69.4,56.79,113.54,129.28,130,217.24,19.51,104.16-3.49,199.5-65.37,285.48C709.63,761.68,707.72,763.83,705.89,766.1Z" transform="translate(0 -8.55)"/><path d="M933.26,291.59a32.68,32.68,0,0,1-33-33.46,33.35,33.35,0,0,1,32.75-33c18.17-.26,33.64,15,33.73,33.26A33.08,33.08,0,0,1,933.26,291.59Z" transform="translate(0 -8.55)"/><path d="M933.5,425.11a33.25,33.25,0,0,1,66.5-.34,33.25,33.25,0,1,1-66.5.34Z" transform="translate(0 -8.55)"/><path d="M983.17,741.57a33.36,33.36,0,0,1-33.12,33.72c-18.16,0-33.56-15.46-33.44-33.61a33.28,33.28,0,0,1,32.85-32.93C968.25,708.51,983,722.88,983.17,741.57Z" transform="translate(0 -8.55)"/></svg>