<svg id="Layer_1" data-name="Layer 1" xmlns="http://www.w3.org/2000/svg" viewBox="0 0 984.27 1000"><path d="M877,1000c-20.81-7.06-41.53-14.41-62.46-21.12Q694,940.18,573.27,901.79c-1.85-.59-3.63-1.37-6.72-2.55,3.19-1.79,5.48-3.34,8-4.43,98.86-43.26,196-90.07,290.46-142.27,44.9-24.8,98-10,122.52,31.94,8.86,15.18,5.1,24.62-12,28.67q-97.65,23.22-195.36,46.16c-1.19.28-2.36.65-6.53,1.81,5.7,1.92,8.82,3.08,12,4,20.55,6.05,41.15,12,61.69,18.09,44.28,13.19,67.75,56.33,53.06,98.49-2.31,6.65-7.71,12.21-11.68,18.28Z" transform="translate(-7.86 0)"/><path d="M7.87,617.07q0-40.52,0-81c0-13,2.71-16.51,14.69-20.72,49.19-17.29,99.12-31.5,151.37-35.76,91.46-7.44,178.41,5.8,253.68,62.18,40,30,77.4,63.62,115.34,96.34,9,7.79,17.14,9.39,28.75,7.84,17.14-2.29,31.22-8.94,44.81-19.16,30.67-23,62.06-45.13,93.06-67.75s74.21-20.63,102.71,5c10.65,9.57,11,18.44.49,28Q730.16,667.27,647.2,742.18c-3.72,3.34-9.73,5-14.91,5.7-41.27,5.39-82.61,10.25-123.89,15.51-11,1.4-16.83,8.1-16,17.08.82,9.34,8.64,15.45,19.6,14.28,42.69-4.55,85.44-8.69,127.94-14.65,9.82-1.38,20.18-7.7,27.81-14.51,48.07-42.9,95.3-86.72,143.07-130,40.7-36.85,99-36.7,136.9-.07,1.41,1.36,2.75,2.77,4.06,4.22,14.08,15.54,12.67,24.18-5.79,34-73.69,39.32-146.8,79.77-221.3,117.48-57.66,29.19-117,55-175.73,82.07-3.07,1.42-6.92,1.58-10.4,1.59-28.32.12-56.63.25-84.94-.09a39.4,39.4,0,0,1-15.83-3.51Q279.8,797.25,122,722.89A44.44,44.44,0,0,0,104.31,719c-24.73-.43-49.47-.17-74.2-.19-17.74,0-22.23-4.59-22.23-22.68Q7.85,656.61,7.87,617.07Z" transform="translate(-7.86 0)"/><path d="M704,500.1c-112.92.19-198.79-87.6-195.94-192.35.76-28.17,11.17-53.91,23-79,26.46-56.2,61.82-106.83,99.14-156.14,16.67-22,34.21-43.42,51.7-64.83,8.26-10.11,18.38-10.41,26.48-.66,54.33,65.37,105.8,132.77,145,208.6,12.42,24,23.79,48.73,27.39,75.73,7.58,56.78-10.33,106.11-48.22,148C796.2,479.53,749.87,499,704,500.1Zm116.2-180.43c.4-16.47-5.22-24.12-15.14-24.35-9.57-.21-15.34,6.83-16,19.12q-2.47,45.36-38.29,73.44c-9.23,7.21-11,15.84-5.21,23.47s14.87,8.44,24,1.4C801.24,388.33,817.64,355.78,820.18,319.67ZM696.12,406.44a15.58,15.58,0,1,0,14.79,16.08A15.77,15.77,0,0,0,696.12,406.44Z" transform="translate(-7.86 0)"/></svg>