<svg id="Layer_1" data-name="Layer 1" xmlns="http://www.w3.org/2000/svg" viewBox="0 0 999.86 1000"><path d="M.08,498.86C2.12,221.62,226-1.45,500.84,0c277.25,1.46,502,227.35,499.06,501.65C997,779.54,772.74,1002.42,498.61,1000,221.15,997.51-1.93,773.26.08,498.86ZM758,277.93c4.88-2.81,10-7.24,15.92-8.88,16.94-4.73,34.08-9,51.36-12.15,11.29-2.08,17.86-6.87,18-16.43s-6.17-15.38-17.74-16.61c-1.13-.12-2.26-.14-3.39-.22-69-4.35-117.76-53.25-122.09-122.35-.8-12.89-6.94-20.75-16.2-20.74s-15.47,8-16.14,20.76a132.79,132.79,0,0,1-29.16,77.1c-5.08,6.43-9.4,8.3-17.86,5.18C562.89,162.27,503.53,156,442.44,166.17c-180.16,30-305.66,203.38-277.65,383.94C194.05,738.65,368.75,865,557.11,833.8,785.78,796,909.84,538.36,796.41,336.25,785.19,316.27,771.23,297.84,758,277.93Zm-688,132c2.3,9.86,5.92,16.82,14.9,18.69,9.2,1.93,16.27-2,19.47-11.35,1.1-3.2,1.65-6.58,2.54-9.85,43.75-159.78,145-260.82,306.62-300.06,13.16-3.2,19-10.26,16.63-21C428,76.4,419.76,72.2,407,75.14,264.76,107.89,162.45,190.5,101.11,322.76,88.19,350.62,80.27,380.79,70,409.89ZM478.26,98.31c9.81,0,18.62-7.57,18.57-15.86-.05-9.16-9.18-16.35-20.6-16.21-10.66.12-17.15,6-16.79,15.22C459.82,91.23,467.79,98.36,478.26,98.31Z" transform="translate(-0.07 0)"/><path d="M597.34,212.91c-13.76,3.44-27.5,7-41.3,10.24-3.27.76-6.78.4-10.17.65C534,224.68,526.16,231,526,239.9c-.23,9.21,7.94,15.85,20.39,16.91,7.51.63,15.1,1.13,22.47,2.58,52.69,10.37,93.68,55.34,99.38,108.74.52,4.88.86,9.79,1.36,14.68,1.1,10.64,7.15,17.11,16,17.12,9.22,0,15-7.08,16.45-18.12,1.76-13.41,2.88-27.27,7.31-39.87,4.91-13.95,13.25-26.7,20.48-40.71,80.27,80.77,112,243,22.76,372.5-92.36,134.08-273.93,172.89-412,88C201,676,152.18,496.86,230.45,354.11c84.89-154.84,257-185.14,366.14-144.57ZM369.18,604.56c9.49-.09,15.15-6.66,16.57-19.25,4.72-41.82,29.58-65.92,71.47-69.27,10.88-.87,16.87-6.49,16.87-15.83,0-9.18-6.26-15.24-16.76-16.24-43.14-4.14-66.69-27.25-71.67-70.32-1.46-12.72-6.91-18.5-17.16-18.23-9.75.26-14.6,6-15.6,18.4-3.31,40.91-29.7,67.12-70.59,70.1-11.65.85-18,6.6-17.84,16.08.18,9.29,7.09,14.16,18.14,16.36,12.38,2.46,25.47,5.07,36.23,11.16,21.39,12.1,32.33,32,34,56.72C353.73,597.78,359.32,604.65,369.18,604.56Z" transform="translate(-0.07 0)"/></svg>