<svg id="Layer_1" data-name="Layer 1" xmlns="http://www.w3.org/2000/svg" viewBox="0 0 1000 626.71"><path d="M442.86,797c-1.41-15.77-3.2-31.53-4.17-47.34-5.53-90.43.75-179.61,29.91-266.12,31.24-92.65,85.08-167.75,171.13-217.26,52.88-30.42,110.47-46,170.71-52.57,52.69-5.72,105.35-4.19,157.93,1.84,18.9,2.17,32,15,31.62,33.65-2.84,136.66-34.07,265.3-112.28,379.41-72.59,105.91-174.4,168.67-299.15,194.93-31.73,6.68-64.14,10.08-97,13.31,15.08-9.59,18.8-24.71,23.8-39.42,39.78-116.9,92.75-227.09,167-326.38,5.8-7.75,12-15.23,16.87-24.54-4.78,2.85-9.69,5.5-14.32,8.57C615.67,500.8,564,562.73,521.28,632.82A794.63,794.63,0,0,0,447,791.68c-.61,1.8-1.37,3.55-2.06,5.33Z" transform="translate(0 -210.08)"/><path d="M398.76,810.49c-78.42-9.32-152.85-29.59-220-71.55C84.9,680.33,32,594.05,10.58,487-2.6,421-2.21,354.6,4.91,288.06c2.77-25.89,14.48-36.55,40.38-35.77,135.12,4,261.85,36.19,374.78,113.51,12.83,8.79,24.89,18.71,38.16,28.76-34.63,66.8-53,137.74-61.38,212.43C328.77,585.05,268.3,551.06,207.66,511c1.77,4.27,2.13,6.1,3.14,7.45,48,64.27,103.54,120.36,174.52,159.62,3.16,1.75,6.35,6.43,6.62,9.95,2.93,39.75,5.29,79.55,7.78,119.33C399.76,808,399.34,808.66,398.76,810.49Z" transform="translate(0 -210.08)"/></svg>