<svg id="Layer_1" data-name="Layer 1" xmlns="http://www.w3.org/2000/svg" viewBox="0 0 999.93 1000"><path d="M1000,125c-87.2-3.19-170.59,65.58-185.34,153.37a261,261,0,0,0-3.45,42.71q-.34,243.63,0,487.27c0,28.58-11.22,50-37.4,61.86-38.55,17.47-83.37-9.81-86.48-52-.38-5.19-.39-10.41-.39-15.61q0-211.41,0-422.82c0-33.15-15.73-56.64-43.6-65.5-38.38-12.2-78.63,15.66-80.72,55.92-.23,4.55-.16,9.11-.16,13.67q0,274.88,0,549.76c0,32.11-18.18,57.15-46.43,64.4-38.71,9.93-76.09-18.23-78.13-58.91-.21-4.22-.11-8.46-.11-12.69q0-304.67,0-609.32c0-32.08-17.13-55.76-45.75-63.7-34.94-9.69-71.64,13.67-77.34,49.49a130.05,130.05,0,0,0-1.32,20.42q-.12,180.15-.08,360.32c0,33.31-16.5,56.8-45.29,65C230.36,759.34,191.7,732,189.27,693c-.3-4.86-.28-9.76-.28-14.64q0-180.15,0-360.32c0-61.59-23-112.79-70.9-151.9-31.7-25.88-68.42-39.47-109.4-41.27-2.53-.12-5.05-.33-8.62-.56V0H1000Z" transform="translate(-0.03)"/></svg>