<svg id="Layer_1" data-name="Layer 1" xmlns="http://www.w3.org/2000/svg" viewBox="0 0 1000 940.53"><path d="M823.64,406.61c0,18.68,0,35,0,51.28q.18,218.65.28,437.32c0,16.31-.21,32.76-2.28,48.89-2,15.59-10.41,22.56-26,24.45a232.82,232.82,0,0,1-27.81,1.65q-267.8.13-535.58,0a222.5,222.5,0,0,1-26.7-1.61c-16.35-2-24.79-10.14-26.93-26.31A211.45,211.45,0,0,1,177,914.49q-.15-247.1-.07-494.21v-14.2c-6,3.57-10.17,6.48-14.71,8.74-15.87,7.92-30.52,4.95-42-8.55a108,108,0,0,1-8.31-11.85Q60.27,313.58,8.8,232.71c-14-22-11.44-38.06,8.61-54.48C71.78,133.72,126.28,89.35,180.48,44.61A60.69,60.69,0,0,1,221.34,30c57.27.29,114.54.11,171.81-.24,28.9-.18,42.18,11.09,45.71,40,5.06,41.43,43,66.21,81.9,53.08,21.83-7.36,35.18-22.76,39.79-45.45.74-3.63,1.16-7.34,1.55-11C564.41,44.9,579.75,30,601.32,29.88c60.24-.27,120.49-.11,180.73.07,13.45,0,25.61,4.33,35.71,13.47q84.75,76.77,169.38,153.67c14.82,13.52,17,34.28,5.63,50.75-33.38,48.3-67.06,96.39-100.62,144.56-.43.61-.91,1.18-1.35,1.77C869.82,422,857,424.85,823.64,406.61ZM383.46,577.81c-59.73.22-97.66,39.94-90.86,87.43,2,13.87-1.39,24.56-7.43,35.72-26.29,48.61-3.66,102.56,49.59,117.25,7.86,2.17,12.64,6,16.75,12.91,22.31,37.39,68.05,49.48,106.92,29.6a65.85,65.85,0,0,1,27.24-7.12c54.07-1.41,91.58-50.75,78.25-103.17-1.7-6.68-1.2-14.58.51-21.35,8-31.57-.58-58.26-23.51-80.2-22.2-21.24-48.61-30.2-78.73-19.78-9.74,3.38-13.59,1.17-17.77-7.43C430.23,592.49,406.29,578.24,383.46,577.81ZM740,462.69c-.28-37.27-24.86-68.67-60.83-78.84-5.92-1.67-12.35-5.32-16.16-10-20.22-24.79-49.91-32.24-79-18.84-28.89,13.3-42.94,41.12-37.3,72.18a66.08,66.08,0,0,1-.1,22.79c-6.4,36.16,16.18,70.21,51.08,76.92a86.26,86.26,0,0,1,22.89,7.74C675,562.59,740.49,523.28,740,462.69ZM452.31,500.1a17.77,17.77,0,0,0,1,35.53c9.56-.29,17.66-8.83,17.35-18.29A18.2,18.2,0,0,0,452.31,500.1ZM641.83,622.7c-9.8-.1-16.86,7.56-16.72,18.12.14,10,6.89,17.3,16.29,17.5,10.07.21,18.7-8.27,18.49-18.18A18.08,18.08,0,0,0,641.83,622.7Z" transform="translate(0 -29.73)"/><path d="M479.82,815.19c-11.4,3.82-22.74,7.88-34.24,11.39-9.81,3-19.84,7.61-29.72,7.47-15.32-.2-27.32-8.94-34.66-22.72-7.85-14.75-19.85-23.14-36-27.3-32.63-8.41-45-40.25-26.89-68.88,9.62-15.21,13.27-31.16,9.73-48.83-4.56-22.78,8.18-43.73,30.73-50.84s44.88,2.63,54.69,24.06c9.64,21,23.09,29.89,43,28a51.79,51.79,0,0,0,11.83-2.9c40.77-14.19,71.11,25.29,61.25,53.72-5.08,14.61-4.1,29.41-.06,44.78C537.36,792.77,512.7,819.5,479.82,815.19Z" transform="translate(0 -29.73)"/><path d="M612.78,381.39c7.35,5,16.16,8.68,21.71,15.19,9.32,10.94,19.54,18.4,33.81,21.68,19,4.37,31.2,16.85,34.94,36.29,3.57,18.59-2.8,34-18,44.87-16,11.43-32.88,11-50.46,2.09-9.11-4.63-19.38-7.12-29.27-10.09-18.79-5.62-24-13.22-23.38-32.26.47-14.28.1-28.63-.76-42.89C580.3,399.23,593.77,384.13,612.78,381.39Z" transform="translate(0 -29.73)"/></svg>