<svg id="Layer_1" data-name="Layer 1" xmlns="http://www.w3.org/2000/svg" viewBox="0 0 721.95 1000"><path d="M494.51,997c-5.48.53-9,1-12.46,1.18-88.36,3.34-176.59,2.67-264.28-10.31-14.92-2.21-29.69-6.23-44.11-10.75-17.35-5.44-21.94-12.84-21.94-30.89q0-158.86,0-317.74c0-44.62,25.4-70,70-70H589.5c42.76,0,68.47,25.79,68.47,68.65v35.13c-38.12,12.5-56.77,42.82-72.37,76-1.54,3.27-2.81,6.67-4.21,10-13.85-2.93-27.27-6.33-40.89-8.44a127.05,127.05,0,0,0-26.31-.86c-19.52,1.1-34.68,14.45-36.88,34-1.69,15-1.35,30.26-1.12,45.39.09,5.79-1.17,8.2-6.94,10.27-12.5,4.5-25,9.42-36.58,15.91-20.05,11.26-26,29.67-17.85,51.37,14.67,39.11,38.53,71.29,72.61,95.71C489.29,993,491.08,994.39,494.51,997Z" transform="translate(-151.72 0)"/><path d="M388.58,305.39V26.81c0-2.43,0-4.85,0-7.28.21-12,7-19.84,16.8-19.52,9.55.31,15.73,7.85,15.73,19.56q0,137.51,0,275v12.61l1.62.27c3.17-11.55,6.4-23.09,9.5-34.66q32.58-121.26,65.17-242.54c.85-3.18,1.76-6.63,3.67-9.19,4.95-6.64,11.81-8.33,19.44-5.22,7.38,3,10.89,10.83,8.56,19.84-6.58,25.55-13.44,51-20.27,76.53q-39.1,145.91-78.08,291.85c-1.84,6.9-4.59,9.39-11.68,8.92a217.51,217.51,0,0,0-28.2,0c-7,.44-10-1.82-11.79-8.8-14-53.4-28.48-106.67-42.75-160q-27.29-102-54.47-204c-.39-1.46-.81-2.93-1.12-4.41-2.2-10.27,2.16-18.48,11-20.83s17.16,2.51,20,12.53c5.78,20.74,11.21,41.58,16.79,62.38q28.19,105,56.37,210c.53,2,1.28,3.86,1.93,5.78Z" transform="translate(-151.72 0)"/><path d="M554.25,532.46H255.58c0-9.27,0-18.25,0-27.23,0-8.81-.13-17.61,0-26.41.46-24.89,16.41-40.5,41.79-40.57,48.27-.12,96.54,0,144.81,0,23.07,0,46.14-.06,69.22,0,26.95.08,42.62,15.57,42.79,42.32C554.34,497.5,554.25,514.44,554.25,532.46Z" transform="translate(-151.72 0)"/><path d="M597.37,815.65c.58-42.86,12-81.16,42.5-112.22,16.67-17,20.36-16.75,35.2,2,45,56.69,52.7,140.59,17.26,201-7.38,12.58-18.09,23.42-28.37,34-8.41,8.64-13.22,7.78-21.16-1.43C612.17,903.4,598,861.8,597.37,815.65Z" transform="translate(-151.72 0)"/><path d="M633.66,966.41c-19.19-1.26-35.86-8.13-51.5-17.4-55.73-33-89.87-107.47-79-171.28,1.3-7.63,5.37-11.77,13.32-12.23,20.07-1.14,39.18,2.79,57.79,10,4.35,1.69,5.94,4,5.3,8.84-8.87,67.39,6.95,127.56,52.73,178.87C632.86,963.83,633,964.77,633.66,966.41Z" transform="translate(-151.72 0)"/><path d="M673.55,965.52c53.92-47.47,67.56-108.34,58.08-176.61-1.14-8.19.59-11.83,8.51-14.54,17.72-6.07,35.6-9.81,54.41-8.93,8.37.39,12.86,4.34,13.9,12.57,10.09,80.09-34.56,156.59-100.59,181.37-10.82,4.06-22.43,6-33.68,9Z" transform="translate(-151.72 0)"/><path d="M487.4,849.44C498,888,515.6,919.33,543,944.78s59.49,40.34,97.45,45.43c-2.72,1.12-5.37,2.5-8.17,3.34-47.86,14.19-91.23,3.52-130.92-24.72-28.72-20.43-48.51-48.06-61.2-80.83-4.34-11.23-2.94-16.51,7.63-21.69C460.15,860.25,473.16,855.43,487.4,849.44Z" transform="translate(-151.72 0)"/><path d="M669,989.6c84-12.09,131.2-61.82,155.29-138.09a111.55,111.55,0,0,1,44.35,17.75c6.7,4.54,5.61,11.43,3,18.1-18.16,47.42-50.07,82-97.13,101.41-30.9,12.76-62.88,15.07-95.2,4.74C676.57,992.62,673.89,991.46,669,989.6Z" transform="translate(-151.72 0)"/></svg>