<svg id="Layer_1" data-name="Layer 1" xmlns="http://www.w3.org/2000/svg" viewBox="0 0 1000.34 1000"><path d="M498.79,0C776-.24,1000,223.47,1000.17,500.69S775.59,1001.63,495.47,1000C221.12,998.39.62,776.57-.17,501.85-1,224.48,222.76.23,498.79,0ZM751,553.77c1.86,3.76,3,6.1,4.15,8.41,36.07,71-6.74,154.37-85.64,163.66-30.5,3.59-61.67,1.4-92.53,1.82-6.2.08-12.4,0-19.43,0,0-6.32.38-11.17-.06-15.93-1.83-19.47-20.37-30.23-37.41-20.76q-57,31.69-113.23,64.82c-17.32,10.24-17.11,32.83.22,43.19q55.51,33.18,111.79,65.09c18.16,10.3,36.67-.48,38.23-21.45.35-4.62,0-9.29,0-14.76,30.78,0,59.75.24,88.72-.1,13.74-.16,27.67-.2,41.17-2.41C805.86,806,883.14,700.4,866,581.1A193.88,193.88,0,0,0,837.23,504ZM208.64,423.21c-17.33,30.23-34.53,58.91-50.49,88.27C91.39,634.24,154.94,783.42,289.6,820.41c19.26,5.29,38.92,8.06,59.94,6.84v-99c-5-.36-8.28-.57-11.58-.85-80.29-6.83-129.83-87.76-95.86-159,15.46-32.43,35.13-62.86,52.68-93.82a8.22,8.22,0,0,1,2.07.16c3.62,1.86,7.22,3.76,10.83,5.64,19.14,9.94,38-.86,38.22-22.4q.59-63.63.3-127.25c-.09-21.35-18.55-33.58-36.6-23.61Q252,338.89,195.44,372.48c-16.79,9.95-16.27,31.54,0,42.61C199.42,417.78,203.61,420.12,208.64,423.21Zm525.17-99.68c-2.33-3.82-4.47-7.19-6.48-10.64-15.34-26.32-30.09-53-46.07-78.93-60.46-98-185.38-130.3-285.93-74C360.2,179.58,333,207.21,313,243.27L399.31,293c1.56-2.17,2.46-3.32,3.26-4.55,49.94-76.92,151.63-74.27,197.69,5.19q20.41,35.19,40.62,70.5c1.77,3.08,3.29,6.29,5.09,9.76-3.15,1.91-5.34,3.26-7.55,4.57-23.5,14-23.28,35,.53,48.94q38.49,22.5,77,45c10.27,6,20.35,12.36,30.92,17.77,16.38,8.4,36.13-1.31,36.51-19q1.47-67.47.48-135c-.24-17.69-18.47-27.82-34.78-20.76C744,317.62,739.29,320.59,733.81,323.53Z" transform="translate(0.17 0)"/></svg>