<svg id="Layer_1" data-name="Layer 1" xmlns="http://www.w3.org/2000/svg" viewBox="0 0 989.17 1000"><path d="M709.17,1000c-18.06-3.81-36.43-6.52-54.13-11.59C538.86,955.12,458.84,839.29,468.37,719c9.09-114.8,83.49-205.81,193.71-237,147.2-41.63,303.29,56.86,328.59,207.35,24.26,144.33-66.39,277-208.92,305.72-9.17,1.84-18.43,3.28-27.65,4.91ZM638.69,603.11c18.68,18.54,37.82,37.48,56.88,56.51,2.24,2.25,5.65,4.88,5.76,7.45.59,13.14.27,26.32.27,40-13,0-24.73.32-36.39-.22-3.07-.14-6.55-2.41-8.91-4.67-10.57-10.13-20.85-20.57-31.15-31-9.27-9.38-18.42-18.89-25.84-26.5-14.78,14.52-28.32,27.83-43.89,43.11l51.13,50.67-49.75,49,41.43,41.43c18.61-18.75,37.8-38.17,57.16-57.44,2.39-2.37,5.59-5.35,8.54-5.5,12.26-.62,24.57-.26,37.92-.26,0,11.86.48,22.86-.24,33.78a21.76,21.76,0,0,1-5.2,12.62c-13.18,14-26.93,27.36-40.61,40.84-5.93,5.83-12.19,11.33-17.92,16.63l43.17,43.15,52.32-53.1L782.43,909l40.48-40.35c-18.16-18.08-37.34-37.09-56.38-56.25-2.41-2.43-5.61-5.56-5.76-8.5-.64-12.55-.27-25.14-.27-37.54,38.07-3.88,38.08-3.89,63.5,21.57,13.75,13.76,27.45,27.58,40.33,40.53l42.6-42.61-51.81-50.49,50.47-49.56c-14-14-27.41-27.43-41.27-41.31-18.68,18.67-38,38-57.36,57.21-2.18,2.16-5.09,4.91-7.77,5-12.56.53-25.17.24-38.74.24,0-11.07.39-21.1-.13-31.09-.35-6.72,1.7-11.55,6.57-16.25,19.39-18.73,38.42-37.84,57-56.19l-41.58-42-51.4,52L680,562.15Z" transform="translate(-5.41)"/><path d="M364.79,0c101,138.81,206.2,273.85,295.89,420.88-121.78,34-205.1,107.54-239,228.51s-1.51,227.2,85.48,319.74c-17.09,5.73-33.25,12.09-49.92,16.6-199,53.84-404.64-73.61-445-275.67-15.12-75.78-4.41-148.74,24-219.85,24.71-61.73,59-118.08,97.51-171.84C208.43,214.13,284.05,110.62,359.26,6.82,360.76,4.76,362.47,2.85,364.79,0ZM263.22,474.05l-47.49-30.32C195,476.05,175.94,508,163.86,543.12,155,568.77,146.23,595.28,143.5,622c-11,108.24,61.4,208.73,167.31,234.57,17.09,4.16,34.9,5.4,52.83,8.06V805.14c-3-.22-5.53-.45-8.05-.59-72.84-3.91-134.35-56-150.82-127.16-9.37-40.54-1.93-79.09,14.55-116C232.41,532.15,248.05,504,263.22,474.05Z" transform="translate(-5.41)"/></svg>