<svg id="Layer_1" data-name="Layer 1" xmlns="http://www.w3.org/2000/svg" viewBox="0 0 962.55 1000"><path d="M761.75,636.42c-47.28-21.61-95.7-35.79-145.8-44.09-78.34-13-155.35-9.18-230.77,17.82S231.11,645.43,151.56,642.7c-42-1.44-83.94-7.4-125.9-11.37-2-.19-3.95-1-6.93-1.7,1.52-3.38,2.58-6.19,4-8.8q87.78-161,175.43-322.08c3.84-7.08,7.63-8.17,14.77-6.68,15.81,3.28,31.8,5.73,49.1,8.76v10.84q0,72.79-.06,145.61c0,8,1.75,14.68,9.31,18.59,12,6.22,24.39-2.43,24.48-17.5.2-32,.06-64,.06-96,0-19,0-37.9,0-55.16l185.73-6.57v8.65q0,45.38,0,90.74c0,14.42,5.82,22.19,16.57,22.37,11.05.19,17.16-7.9,17.18-22.89q0-48,0-96v-12.3c62.48-10.25,120.62-37.81,185.79-38.54V264q0,95,0,189.92c0,3.51-.34,7.18.53,10.49,2.19,8.41,7.69,13.32,16.72,13.13s14.3-5.33,16.16-13.82c.74-3.37.36-7,.36-10.52q0-94.42,0-188.87v-13c73.78,1,143.7,16.3,212.92,43.77Z" transform="translate(-18.73 0)"/><path d="M924,409.75l57.3,21.07C918.87,545.22,857.35,658,796.16,770.15c-26.56-9.3-52-19.45-78.09-27.11-90.83-26.6-182.52-33.24-274.33-5.61-40.36,12.15-80.16,25.91-122,32.24a787.51,787.51,0,0,1-183,6.23c-26.24-2.16-52.32-6.2-78.46-9.46a74.13,74.13,0,0,1-7.83-2c1.62-3.45,2.77-6.26,4.21-8.91,13.08-24.08,26.44-48,39.17-72.27,3.58-6.82,7.4-9.08,15.44-8.54,85.45,5.75,170.06,1,253-22.34,31.74-8.92,62.94-20.38,95.15-26.86,67.45-13.58,134.63-7.22,200.32,11.38,32.63,9.24,64.26,22.24,95.93,34.59,16.36,6.37,22.41,5.42,30.83-10q65.16-119.32,130.25-238.68C918.65,419.16,920.74,415.51,924,409.75Z" transform="translate(-18.73 0)"/><path d="M498.56,776.73c25.66,35.57,52.11,68.62,64.82,109.44,12.49,40.13-24.46,82.43-68.22,79.61-33.12-2.13-59-24.32-62.88-57.24-1.39-11.79,2-25.18,6.6-36.44C453,837.77,475.18,808.24,498.56,776.73Z" transform="translate(-18.73 0)"/><path d="M262.18,810.47c25.71,35.92,52.66,69.07,65,110.46,11.84,39.73-25.15,81.4-68.43,78.62-32.77-2.12-58.45-23.69-62.68-56.19-1.57-12.08,1.67-25.93,6.39-37.47C216.5,871.56,238.74,842,262.18,810.47Z" transform="translate(-18.73 0)"/><path d="M734.82,810.43c24.36,33.33,47.56,64.57,62.27,101.09,10.76,26.69,4.22,50-15.56,69.21-20.57,20-45.67,24.16-72.13,13.74-25.9-10.2-39.52-30.51-41.79-58.1a42.53,42.53,0,0,1,2.24-16.52C683.37,879.28,709.08,846,734.82,810.43Z" transform="translate(-18.73 0)"/><path d="M515.33,57.78V242.64c0,15,0,15.09-14.72,17.61-5.85,1-11.75,1.68-18.85,2.67V61.15L478.54,59c-11.15,11.89-21.93,24.18-33.68,35.45-3.9,3.74-10.55,7-15.52,6.52s-11.52-5.29-13.17-9.75c-1.81-4.9-.93-13.59,2.44-17.17C440.8,50.55,463.8,27.78,486.94,5.18c7.27-7.1,16.19-6.85,23.66.45q33.95,33.2,67.14,67.13c7.16,7.31,6.83,17,.44,23.72-6.66,7-16.75,7.28-24.48-.15C541.37,84.48,529.53,72.11,515.33,57.78Z" transform="translate(-18.73 0)"/><path d="M221.05,101.68c58.05,43.21,77.19,100.25,74.5,168.57l-33.46-3.16C263,229.68,258,195,236.72,164.43c-10.76-15.46-24.19-28-42.16-39.08,0,15.53,0,29.34,0,43.14,0,4.22.23,8.47-.13,12.65-.83,9.49-7.47,15.7-16.49,15.81s-16.74-6-16.86-15.32c-.44-32.69-.52-65.4.05-98.08.17-9.66,6.95-15.41,16.76-15.48q47.48-.39,94.94,0c10.23.09,16.78,7,16.94,16.41.15,9.84-6.54,16.87-17.36,17.11C256.31,101.94,240.22,101.68,221.05,101.68Z" transform="translate(-18.73 0)"/><path d="M802.42,125.41c-35.87,22.18-55.8,52.7-64.27,91.54H704.34c8.23-47.26,30.47-85.42,72-115.24-18.17,0-33.1.06-48,0-13.65-.07-20.92-5.9-21.06-16.65-.15-10.93,7.09-17,20.57-17.08q43.76-.09,87.51,0c14.59,0,20.8,6,20.86,20.2q.2,44.27,0,88.54c0,13.22-6.56,20.57-17.47,20.24-10.38-.31-16.18-7.45-16.25-20.34C802.35,160.18,802.42,143.76,802.42,125.41Z" transform="translate(-18.73 0)"/></svg>