<svg id="Layer_1" data-name="Layer 1" xmlns="http://www.w3.org/2000/svg" viewBox="0 0 991.13 1000"><path d="M428.51,557.09c26.55,2.18,50.44,9.77,74,19.57,22.55,9.39,45.17,20.27,68.85,25,35.68,7,71.52,3.56,105.06-13.07,30.12-14.94,60.75-28.47,95.22-31.06v78.18c-23.35,10.05-45.28,19.9-67.52,29-69.52,28.49-138.82,28.26-208.12-1.45-21.39-9.16-43.62-16.34-65.35-24.74-2.44-.94-5.52-3.66-5.9-6C420.59,607.3,421.1,582.25,428.51,557.09Z" transform="translate(-4.43)"/><path d="M558.25,230.16c26.12,0,51-.1,75.94.18,2.41,0,6.19,1.88,7,3.84,11.78,28.85,25.24,57.24,34.21,87,18.56,61.53,15.24,122.49-10.58,182-9.28,21.38-16.47,43.65-25.25,65.25-1.23,3-6.14,6.38-9.4,6.44-19.84.37-39.69-.15-59.54-.41-12.72-.17-14.93-7.61-11.5-17.81,8.82-26.15,16.45-52.87,27.51-78.06,12-27.41,19-55.09,18.45-85C604.59,367.7,599.5,343.17,588,320c-13-26.32-24.74-53.11-29-82.5C558.66,235.21,558.52,232.89,558.25,230.16Z" transform="translate(-4.43)"/><path d="M442.43,428.89c-2.41,31.55-11.82,60-26,86.72C398.19,550,391,586.29,396.4,624.4c2.58,18.28,8.92,36.17,14.9,53.78,8.77,25.77,18.9,51.08,28.08,76.72,1.63,4.55,1.48,9.74,2.13,14.49H361.57c-10.8-25.19-22.52-49.43-31.74-74.59Q293.61,596,334.55,498.34c9.2-21.87,17.06-44.3,25.89-66.32,1.06-2.63,4.13-5.82,6.7-6.27C392,421.46,416.81,421.61,442.43,428.89Z" transform="translate(-4.43)"/><path d="M571.37,442.67c-27.28-1.57-52.12-9-75.73-20.54-28.93-14.13-58.1-26.55-91.23-26.7-29.34-.13-57,5.18-84,17.17-25.16,11.13-51.74,19.08-77.81,28.09-4.29,1.48-9.19,1.23-15.21,1.94.74-12.24,1.88-23.74,2-35.26.15-12.87-.84-25.75-.76-38.63,0-2.76,1.79-7.14,3.9-8,24.78-10.29,49.56-20.7,74.78-29.84q95.9-34.71,190.85,3.34c23.79,9.57,47.89,18.35,71.76,27.72,2.06.81,4.66,3.14,5,5.08C578.74,392.22,579,417.3,571.37,442.67Z" transform="translate(-4.43)"/><path d="M848.58,428.06l75.14,33c-9.14,21.58-17.45,43.38-27.47,64.36-18.88,39.53-21.77,80.65-11.51,122.33,4.61,18.7,14,36.34,22,54.1a245.6,245.6,0,0,1,21.75,93.38c-4.79-2-8.45-3.82-12.32-5-20.52-6.08-41-12.43-61.71-17.69-7.22-1.83-10.66-4.22-13.12-11.87-5.13-15.9-12.07-31.28-19-46.53-32.89-72.4-33.37-145-2.19-218C829.56,474,838.68,451.77,848.58,428.06Z" transform="translate(-4.43)"/><path d="M425.52,153c10.09-23.06,20.79-47.48,32.69-74.66,23,9.63,45.69,18.62,67.95,28.53,50.72,22.58,101.1,22.47,151.83-.06,20.27-9,40.77-17.9,61.93-24.31,16.55-5,34.28-6.13,54.15-9.42-1.91,6-3,9-3.85,12.06-5.62,20.64-11.59,41.19-16.53,62-1.59,6.68-3.31,10.35-10.65,12.63A339.38,339.38,0,0,0,718.44,177C642.11,213.2,565.83,213.93,489,178.71,469.23,169.67,448.73,162.33,425.52,153Z" transform="translate(-4.43)"/><path d="M151.24,572l-74.5-32.81C84.1,520.93,90.1,502,99.11,484.58c18.22-35.21,25.58-72.19,19.8-111a210.14,210.14,0,0,0-15.35-52.36c-13.12-30.11-26.87-59.79-30.25-93-.75-7.32-1.06-14.69-1.51-21.1,23.27,6.75,45.71,14.63,68.79,19.38,11.71,2.41,16.39,6.67,19.59,17.94,4.13,14.49,11.46,28.09,17.7,41.94,32.79,72.77,32.82,145.7,1.46,218.89C170.17,526.66,161.25,548.18,151.24,572Z" transform="translate(-4.43)"/><path d="M208.89,925c6.19-26.18,12.25-52.23,18.67-78.19.5-2,3.16-4.22,5.32-5.1q33-13.47,66.1-26.47c71.23-28,141.59-26.44,211.34,5.63,20.08,9.23,40.89,16.86,63.84,26.24q-14.4,33.25-31.72,73.23c-12.77-4.42-25.55-8.49-38.06-13.24-23.26-8.84-45.71-21-69.7-26.5-38.46-8.87-76.84-5.13-112.94,13-30.14,15.15-61.23,27.49-95.27,30.56-4.28.39-8.56.78-12.84,1A34.65,34.65,0,0,1,208.89,925Z" transform="translate(-4.43)"/><path d="M911.66,302.77c-30.39-5.14-60.29-9.94-90-15.57-3.75-.71-8.47-5.26-9.7-9-21.12-64.88-19.86-129,7.68-192,8.11-18.56,16-37.25,23-56.25,8.25-22.37,29.29-34.53,50.89-28.21S927.9,30.15,920.7,52.78a516.22,516.22,0,0,1-25.09,63c-18.67,39.7-20.69,80.76-10.7,122.43,3.86,16.1,12.34,31.1,18.82,46.56C906.53,291.44,909.57,298,911.66,302.77Z" transform="translate(-4.43)"/><path d="M86,692.3c31.88,12.53,62.11,19,93.51,20.34,3.16.14,7.54,6.05,8.84,10.1,20.35,63.31,19,126-6.49,187.77-8.63,20.89-17.35,41.74-25.77,62.71-8.3,20.67-29.71,31.29-50.55,24.75C84.92,991.49,72.23,970,79,948.76c7-21.83,15.82-43.17,25.1-64.16,22.63-51.2,22.89-102.05-.29-153C98.25,719.33,92.7,707.05,86,692.3Z" transform="translate(-4.43)"/><path d="M580.63,714.46c27.39-2.49,54.06-5.19,80.8-6.94,2.79-.18,7.34,4.75,8.74,8.24,14.31,35.82,18.14,73.23,15.88,111.5-2.08,35.19-11.78,68.18-27.24,99.79-6.65,13.6-11.84,28-16.89,42.28-8.23,23.38-29.19,35.42-51.37,28.79-22-6.57-34-28.56-26.59-52.25a433.09,433.09,0,0,1,21.94-55.35c25.89-54.69,26.34-109,.18-163.64C584,722.43,582.11,717.84,580.63,714.46Z" transform="translate(-4.43)"/><path d="M419.64,285.77,333,292.08c-11.44-23.79-17.09-50.64-19-78.4-3.52-51,5.17-99.41,29.13-145,6.3-12,10.53-25.14,15-38,8.07-23.3,29.48-35.56,51.33-28.84C431.1,8.49,443.05,29.9,436.13,53A333.51,333.51,0,0,1,416,105.27c-28.34,57.11-29,113.88-.78,171C416.78,279.36,418.14,282.51,419.64,285.77Z" transform="translate(-4.43)"/><path d="M298.46,93.61c-4.18,29.94-8.14,59.88-12.83,89.72-.46,2.95-4.88,6.58-8.17,7.61C214,210.82,151.47,209.3,90,182.5c-18.91-8.25-38-16.22-57.23-23.61C11,150.54-.2,129.77,6.49,108.41,13,87.67,34.25,75.25,55.74,82a506.51,506.51,0,0,1,59.76,23.46c52.52,24.19,104.74,24.48,157.17.31C281.87,101.53,291,97.13,298.46,93.61Z" transform="translate(-4.43)"/><path d="M701.65,906.14c4.07-29.58,7.71-58.45,12.36-87.16.65-4,5.66-9,9.74-10.41,35.62-12.55,72.53-14.52,109.82-11.47,31.11,2.55,60.18,12.25,88.26,25.68,14.38,6.87,29.37,12.55,44.39,17.94,21.84,7.84,33.65,28.59,27.67,50C988,911.85,966.47,924.63,944.14,918a366.12,366.12,0,0,1-55.5-21.47c-55.84-27.15-111.14-27.14-166.64.38-6.64,3.29-13.46,6.2-20.23,9.2C701.18,906.37,700.33,906,701.65,906.14Z" transform="translate(-4.43)"/><path d="M715.67,418.11c-2.43-27-5-53.28-6.82-79.62-.18-2.64,4.15-7.39,7.15-8.16,20.72-5.31,41.43-12,62.56-14.15,48.64-5,95.7,2,140.13,24,15.32,7.58,31.5,13.57,47.59,19.42,22,8,33.66,28.5,27.65,50A39.09,39.09,0,0,1,945.23,437a325.56,325.56,0,0,1-54.51-20.78c-55.61-27.21-111-28.54-166.79-1.41C720.93,416.28,717.71,417.31,715.67,418.11Z" transform="translate(-4.43)"/><path d="M290.21,667.3c-34.66,15-72,19.24-110.2,17.69-36.06-1.46-69.94-11-102.34-26.88C63.73,651.26,49,645.92,34.29,640.75,11.67,632.81-.32,611.69,6.27,590c6.64-21.85,28.09-33.74,51.15-26.46A416.45,416.45,0,0,1,111.76,585c54.24,26,108.24,26.84,162.61,1,3.42-1.63,6.95-3,10.14-4.36C286.42,610.22,288.25,637.82,290.21,667.3Z" transform="translate(-4.43)"/><path d="M424.57,906.15c-9.94,25-18.5,48.78-28.81,71.77-8.34,18.63-30.43,26.5-49.61,19.62-18.94-6.78-28.95-26.69-26-46.9,3.59-24.73,16.15-38.64,41.12-42.87C382.18,904.23,402.81,902.88,424.57,906.15Z" transform="translate(-4.43)"/><path d="M575.26,94.4c9.87-24.91,18.55-48.66,28.67-71.79,7.64-17.48,27.79-25.95,46.24-21.29a40.26,40.26,0,0,1,30.22,39.76,49.42,49.42,0,0,1-1.17,10.44c-6.93,29.81-17.4,39.14-51.92,42.59C610.34,95.8,593.08,94.4,575.26,94.4Z" transform="translate(-4.43)"/><path d="M91.34,422.24c-21.51-8.32-41.95-15.8-62-24.12C9.42,389.89.06,369,6.4,349S32,318.38,53.32,321.69c18,2.81,29,11.21,33.72,29.63C93.09,374.76,94.8,398,91.34,422.24Z" transform="translate(-4.43)"/><path d="M909.57,577.25c4,1.69,7.72,3.37,11.53,4.91,14.4,5.81,28.63,12.13,43.28,17.25,23.51,8.24,35.79,28.73,29.59,50.87s-28.07,32.38-53.26,26.81c-14.26-3.16-21.88-10.44-26.28-24C907.61,632.05,904.55,598.55,909.57,577.25Z" transform="translate(-4.43)"/><path d="M898.51,928.7c-6.14,17.17-10.79,30.74-15.86,44.15-7.8,20.66-28.31,31.21-48.92,25.46s-33.62-25.61-28.87-47c3.11-14,8.67-27.45,14-40.78,1-2.57,7-5.54,9.54-4.76C851.73,912.92,874.79,920.83,898.51,928.7Z" transform="translate(-4.43)"/><path d="M101.79,70.71C107.7,54,112.26,40.79,117,27.66c7.62-20.89,29.17-32,49.83-25.94a40,40,0,0,1,27.85,48.49c-3,12-8.15,23.49-11.53,35.44-2.51,8.87-8.19,11-15.73,8.46C145.54,86.64,123.82,78.61,101.79,70.71Z" transform="translate(-4.43)"/><path d="M68.62,893.17c-12.92-4.5-25.1-8.51-37.12-12.95C11,872.62.18,851.72,6.06,831.35c6-20.83,25.33-32.83,47.08-28.2,10.59,2.26,20.74,6.57,31.19,9.57,7.33,2.11,9.35,6.25,8.36,13.79A167.43,167.43,0,0,1,68.62,893.17Z" transform="translate(-4.43)"/><path d="M928.52,105.85c15.92,5.6,28.85,9.7,41.43,14.66a40.21,40.21,0,0,1-23.7,76.61A201.74,201.74,0,0,1,922.83,190c-17-6.05-18.79-7.49-14.13-25.22C913.9,145,921.64,125.94,928.52,105.85Z" transform="translate(-4.43)"/></svg>