{
	"asset":{
		"version":"2.0",
		"generator":"Created using the official Cinema 4D glTF Exporter 1.000x284978"
	},
	"scenes":[{
		"nodes":[0]
	}],
	"nodes":[{
		"rotation":[0.0,
		-1.0,
		0.0,
		-6.123234262925839e-17],
		"name":"Default",
		"translation":[0.0,
		2.54355525970459,
		0.0],
		"scale":[1.0,
		1.0,
		1.0],
		"children":[1,
		2,
		3,
		4,
		5]
	},
	{
		"name":"Default-Mat.2",
		"mesh":0
	},
	{
		"name":"Default-Mat.3",
		"mesh":1
	},
	{
		"name":"Default-initialShadingGroup",
		"mesh":2
	},
	{
		"name":"Default-Mat",
		"mesh":3
	},
	{
		"name":"Default-Mat.1",
		"mesh":4
	}],
	"meshes":[{
		"name":"Default-Mat.2",
		"primitives":[{
			"attributes":{
				"POSITION":1,
				"NORMAL":2,
				"TEXCOORD_0":3
			},
			"indices":0,
			"material":0
		}]
	},
	{
		"name":"Default-Mat.3",
		"primitives":[{
			"attributes":{
				"POSITION":5,
				"NORMAL":6,
				"TEXCOORD_0":7
			},
			"indices":4,
			"material":1
		}]
	},
	{
		"name":"Default-initialShadingGroup",
		"primitives":[{
			"attributes":{
				"POSITION":9,
				"NORMAL":10,
				"TEXCOORD_0":11
			},
			"indices":8,
			"material":2
		}]
	},
	{
		"name":"Default-Mat",
		"primitives":[{
			"attributes":{
				"POSITION":13,
				"NORMAL":14,
				"TEXCOORD_0":15
			},
			"indices":12,
			"material":3
		}]
	},
	{
		"name":"Default-Mat.1",
		"primitives":[{
			"attributes":{
				"POSITION":17,
				"NORMAL":18,
				"TEXCOORD_0":19
			},
			"indices":16,
			"material":4
		}]
	}],
	"materials":[{
		"pbrMetallicRoughness":{
			"baseColorFactor":[1.0,
			0.7647058823529411,
			0.0,
			1.0],
			"metallicFactor":0.0,
			"roughnessFactor":0.5
		},
		"emissiveFactor":[0.0,
		0.0,
		0.0],
		"alphaMode":"OPAQUE",
		"doubleSided":false,
		"name":"Mat.2"
	},
	{
		"pbrMetallicRoughness":{
			"baseColorFactor":[0.8156862745098039,
			0.09019607843137259,
			0.050980392156862747,
			1.0],
			"metallicFactor":0.0,
			"roughnessFactor":0.5
		},
		"emissiveFactor":[0.0,
		0.0,
		0.0],
		"alphaMode":"OPAQUE",
		"doubleSided":false,
		"name":"Mat.3"
	},
	{
		"pbrMetallicRoughness":{
			"baseColorFactor":[0.5,
			0.5,
			0.5,
			1.0],
			"metallicFactor":0.0,
			"roughnessFactor":0.5
		},
		"emissiveFactor":[0.0,
		0.0,
		0.0],
		"alphaMode":"OPAQUE",
		"doubleSided":false,
		"name":"initialShadingGroup"
	},
	{
		"pbrMetallicRoughness":{
			"baseColorTexture":{
				"index":0
			},
			"baseColorFactor":[0.8,
			0.8,
			0.8,
			1.0],
			"metallicFactor":0.0,
			"roughnessFactor":0.5
		},
		"emissiveFactor":[0.0,
		0.0,
		0.0],
		"alphaMode":"OPAQUE",
		"doubleSided":false,
		"name":"Mat"
	},
	{
		"pbrMetallicRoughness":{
			"baseColorTexture":{
				"index":1
			},
			"baseColorFactor":[0.8,
			0.8,
			0.8,
			1.0],
			"metallicFactor":0.0,
			"roughnessFactor":0.5
		},
		"emissiveFactor":[0.0,
		0.0,
		0.0],
		"alphaMode":"OPAQUE",
		"doubleSided":false,
		"name":"Mat.1"
	}],
	"accessors":[{
		"bufferView":0,
		"type":"SCALAR",
		"byteOffset":0,
		"componentType":5123,
		"count":30264,
		"min":[0],
		"max":[5049]
	},
	{
		"bufferView":1,
		"type":"VEC3",
		"byteOffset":0,
		"componentType":5126,
		"count":5050,
		"min":[-0.40109819173812868,
		-2.5234313011169435,
		-0.8425857424736023],
		"max":[0.40109819173812868,
		1.9321972131729127,
		0.8425857424736023]
	},
	{
		"bufferView":1,
		"type":"VEC3",
		"byteOffset":12,
		"componentType":5126,
		"count":5050,
		"min":[-1.0,
		-1.0,
		-0.9999688267707825],
		"max":[1.0,
		0.9999688267707825,
		0.9999688267707825]
	},
	{
		"bufferView":1,
		"type":"VEC2",
		"byteOffset":24,
		"componentType":5126,
		"count":5050,
		"min":[0.0,
		0.0],
		"max":[0.47356897592544558,
		1.0]
	},
	{
		"bufferView":2,
		"type":"SCALAR",
		"byteOffset":0,
		"componentType":5123,
		"count":29688,
		"min":[0],
		"max":[7909]
	},
	{
		"bufferView":3,
		"type":"VEC3",
		"byteOffset":0,
		"componentType":5126,
		"count":7910,
		"min":[-0.2808659076690674,
		1.9354428052902222,
		-0.27960339188575747],
		"max":[0.2808659076690674,
		2.5127508640289308,
		0.28212836384773257]
	},
	{
		"bufferView":3,
		"type":"VEC3",
		"byteOffset":12,
		"componentType":5126,
		"count":7910,
		"min":[-1.0,
		-1.0,
		-1.0],
		"max":[1.0,
		0.9999688267707825,
		0.9999688267707825]
	},
	{
		"bufferView":3,
		"type":"VEC2",
		"byteOffset":24,
		"componentType":5126,
		"count":7910,
		"min":[0.0,
		0.0],
		"max":[0.8125280141830444,
		1.0]
	},
	{
		"bufferView":4,
		"type":"SCALAR",
		"byteOffset":0,
		"componentType":5123,
		"count":1083,
		"min":[0],
		"max":[238]
	},
	{
		"bufferView":5,
		"type":"VEC3",
		"byteOffset":0,
		"componentType":5126,
		"count":239,
		"min":[0.3233407139778137,
		-2.1642768383026125,
		-0.643871545791626],
		"max":[0.3279590606689453,
		0.5519309043884277,
		0.6296771168708801]
	},
	{
		"bufferView":5,
		"type":"VEC3",
		"byteOffset":12,
		"componentType":5126,
		"count":239,
		"min":[0.2587812542915344,
		-0.9646250605583191,
		-0.9656875729560852],
		"max":[1.0,
		0.963312566280365,
		0.9655938148498535]
	},
	{
		"bufferView":5,
		"type":"VEC2",
		"byteOffset":24,
		"componentType":5126,
		"count":239,
		"min":[0.0028829998336732389,
		0.005223999731242657],
		"max":[0.9991159439086914,
		0.9967529773712158]
	},
	{
		"bufferView":6,
		"type":"SCALAR",
		"byteOffset":0,
		"componentType":5123,
		"count":7686,
		"min":[0],
		"max":[1330]
	},
	{
		"bufferView":7,
		"type":"VEC3",
		"byteOffset":0,
		"componentType":5126,
		"count":1331,
		"min":[-0.4123828113079071,
		-2.1634914875030519,
		-0.6425198912620544],
		"max":[-0.35525238513946535,
		0.5499786734580994,
		0.6294746994972229]
	},
	{
		"bufferView":7,
		"type":"VEC3",
		"byteOffset":12,
		"componentType":5126,
		"count":1331,
		"min":[-0.9999688267707825,
		-0.9975938200950623,
		-0.9998437762260437],
		"max":[0.9723125696182251,
		0.9982500672340393,
		0.9998750686645508]
	},
	{
		"bufferView":7,
		"type":"VEC2",
		"byteOffset":24,
		"componentType":5126,
		"count":1331,
		"min":[-0.015599999576807022,
		0.0019529999699443579],
		"max":[0.9891970157623291,
		1.0135600566864014]
	},
	{
		"bufferView":8,
		"type":"SCALAR",
		"byteOffset":0,
		"componentType":5123,
		"count":7686,
		"min":[0],
		"max":[1334]
	},
	{
		"bufferView":9,
		"type":"VEC3",
		"byteOffset":0,
		"componentType":5126,
		"count":1335,
		"min":[0.35525238513946535,
		-2.1634914875030519,
		-0.6425198912620544],
		"max":[0.4123828113079071,
		0.5499786734580994,
		0.6294746994972229]
	},
	{
		"bufferView":9,
		"type":"VEC3",
		"byteOffset":12,
		"componentType":5126,
		"count":1335,
		"min":[-0.9723125696182251,
		-0.9975938200950623,
		-0.9998437762260437],
		"max":[0.9999688267707825,
		0.9982500672340393,
		0.9998750686645508]
	},
	{
		"bufferView":9,
		"type":"VEC2",
		"byteOffset":24,
		"componentType":5126,
		"count":1335,
		"min":[0.00723899994045496,
		0.0019529999699443579],
		"max":[0.9954229593276978,
		0.9980469942092896]
	}],
	"bufferViews":[{
		"buffer":0,
		"byteOffset":0,
		"byteLength":60528,
		"target":34963
	},
	{
		"buffer":0,
		"byteOffset":60528,
		"byteLength":161600,
		"target":34962,
		"byteStride":32
	},
	{
		"buffer":1,
		"byteOffset":0,
		"byteLength":59376,
		"target":34963
	},
	{
		"buffer":1,
		"byteOffset":59376,
		"byteLength":253120,
		"target":34962,
		"byteStride":32
	},
	{
		"buffer":2,
		"byteOffset":0,
		"byteLength":2166,
		"target":34963
	},
	{
		"buffer":2,
		"byteOffset":2168,
		"byteLength":7648,
		"target":34962,
		"byteStride":32
	},
	{
		"buffer":3,
		"byteOffset":0,
		"byteLength":15372,
		"target":34963
	},
	{
		"buffer":3,
		"byteOffset":15372,
		"byteLength":42592,
		"target":34962,
		"byteStride":32
	},
	{
		"buffer":4,
		"byteOffset":0,
		"byteLength":15372,
		"target":34963
	},
	{
		"buffer":4,
		"byteOffset":15372,
		"byteLength":42720,
		"target":34962,
		"byteStride":32
	}],
	"buffers":[{
		"uri":"data:application/octet-stream;base64,",
		"byteLength":222128
	},
	{
		"uri":"data:application/octet-stream;base64,",
		"byteLength":312496
	},
	{
		"uri":"data:application/octet-stream;base64,",
		"byteLength":9816
	},
	{
		"uri":"data:application/octet-stream;base64,",
		"byteLength":57964
	},
	{
		"uri":"data:application/octet-stream;base64,",
		"byteLength":58092
	}],
	"images":[{
		"uri":"data:image/jpeg;base64,"
	},
	{
		"uri":"data:image/jpeg;base64,"
	}],
	"samplers":[{
		"magFilter":9729,
		"minFilter":9729,
		"wrapS":10497,
		"wrapT":10497
	},
	{
		"magFilter":9729,
		"minFilter":9729,
		"wrapS":10497,
		"wrapT":10497
	}],
	"textures":[{
		"sampler":0,
		"source":0
	},
	{
		"sampler":1,
		"source":1
	}]
}