{
	"asset":{
		"version":"2.0",
		"generator":"Created using the official Cinema 4D glTF Exporter 1.000x284978"
	},
	"scenes":[{
		"nodes":[0]
	}],
	"nodes":[{
		"rotation":[0.0,
		-1.0,
		0.0,
		-6.123234262925839e-17],
		"name":"Default.1",
		"translation":[4.0041526464734485e-16,
		0.0,
		-0.0010779121657833458],
		"scale":[1.0,
		1.0,
		1.0],
		"children":[1,
		2,
		3,
		4,
		5]
	},
	{
		"name":"Default.1-Mat.6",
		"mesh":0
	},
	{
		"name":"Default.1-Mat.5",
		"mesh":1
	},
	{
		"name":"Default.1-Mat.7",
		"mesh":2
	},
	{
		"name":"Default.1-Mat.4",
		"mesh":3
	},
	{
		"name":"Default.1-Mat.11",
		"mesh":4
	}],
	"meshes":[{
		"name":"Default.1-Mat.6",
		"primitives":[{
			"attributes":{
				"POSITION":1,
				"NORMAL":2,
				"TEXCOORD_0":3
			},
			"indices":0,
			"material":0
		}]
	},
	{
		"name":"Default.1-Mat.5",
		"primitives":[{
			"attributes":{
				"POSITION":5,
				"NORMAL":6,
				"TEXCOORD_0":7
			},
			"indices":4,
			"material":1
		}]
	},
	{
		"name":"Default.1-Mat.7",
		"primitives":[{
			"attributes":{
				"POSITION":9,
				"NORMAL":10,
				"TEXCOORD_0":11
			},
			"indices":8,
			"material":2
		}]
	},
	{
		"name":"Default.1-Mat.4",
		"primitives":[{
			"attributes":{
				"POSITION":13,
				"NORMAL":14,
				"TEXCOORD_0":15
			},
			"indices":12,
			"material":3
		}]
	},
	{
		"name":"Default.1-Mat.11",
		"primitives":[{
			"attributes":{
				"POSITION":17,
				"NORMAL":18,
				"TEXCOORD_0":19
			},
			"indices":16,
			"material":4
		}]
	}],
	"materials":[{
		"pbrMetallicRoughness":{
			"baseColorTexture":{
				"index":0
			},
			"baseColorFactor":[0.8,
			0.8,
			0.8,
			1.0],
			"metallicFactor":0.0,
			"roughnessFactor":0.5
		},
		"emissiveFactor":[0.0,
		0.0,
		0.0],
		"alphaMode":"OPAQUE",
		"doubleSided":false,
		"name":"Mat.6"
	},
	{
		"pbrMetallicRoughness":{
			"baseColorFactor":[0.0,
			0.0,
			0.4784313725490196,
			1.0],
			"metallicFactor":0.0,
			"roughnessFactor":0.5
		},
		"emissiveFactor":[0.0,
		0.0,
		0.0],
		"alphaMode":"OPAQUE",
		"doubleSided":false,
		"name":"Mat.5"
	},
	{
		"pbrMetallicRoughness":{
			"baseColorTexture":{
				"index":1
			},
			"baseColorFactor":[0.8,
			0.8,
			0.8,
			1.0],
			"metallicFactor":0.0,
			"roughnessFactor":0.5
		},
		"emissiveFactor":[0.0,
		0.0,
		0.0],
		"alphaMode":"OPAQUE",
		"doubleSided":false,
		"name":"Mat.7"
	},
	{
		"pbrMetallicRoughness":{
			"baseColorFactor":[0.8,
			0.8,
			0.8,
			0.21999999999999998],
			"metallicFactor":0.0,
			"roughnessFactor":1.0
		},
		"emissiveFactor":[0.0,
		0.0,
		0.0],
		"alphaMode":"BLEND",
		"doubleSided":false,
		"name":"Mat.4"
	},
	{
		"pbrMetallicRoughness":{
			"baseColorFactor":[0.8,
			0.8,
			0.8,
			1.0],
			"metallicFactor":0.0,
			"roughnessFactor":0.5
		},
		"emissiveFactor":[0.0,
		0.0,
		0.0],
		"alphaMode":"OPAQUE",
		"doubleSided":false,
		"name":"Mat.11"
	}],
	"accessors":[{
		"bufferView":0,
		"type":"SCALAR",
		"byteOffset":0,
		"componentType":5123,
		"count":8250,
		"min":[0],
		"max":[1434]
	},
	{
		"bufferView":1,
		"type":"VEC3",
		"byteOffset":0,
		"componentType":5126,
		"count":1435,
		"min":[0.6809031963348389,
		0.4609294533729553,
		-0.7146360278129578],
		"max":[0.9794806241989136,
		3.3654472827911379,
		1.545178771018982]
	},
	{
		"bufferView":1,
		"type":"VEC3",
		"byteOffset":12,
		"componentType":5126,
		"count":1435,
		"min":[-0.9368438124656677,
		-0.9996563196182251,
		-0.9975938200950623],
		"max":[0.9999688267707825,
		0.9973750710487366,
		0.9979375600814819]
	},
	{
		"bufferView":1,
		"type":"VEC2",
		"byteOffset":24,
		"componentType":5126,
		"count":1435,
		"min":[-0.005508999340236187,
		0.001970999874174595],
		"max":[0.9969649314880371,
		1.0003118515014649]
	},
	{
		"bufferView":2,
		"type":"SCALAR",
		"byteOffset":0,
		"componentType":5123,
		"count":63864,
		"min":[0],
		"max":[10762]
	},
	{
		"bufferView":3,
		"type":"VEC3",
		"byteOffset":0,
		"componentType":5126,
		"count":10763,
		"min":[-0.9744200110435486,
		-0.009212000295519829,
		-1.8886257410049439],
		"max":[0.9744201898574829,
		4.530862331390381,
		1.9160330295562745]
	},
	{
		"bufferView":3,
		"type":"VEC3",
		"byteOffset":12,
		"componentType":5126,
		"count":10763,
		"min":[-0.9999688267707825,
		-0.9999688267707825,
		-0.9999688267707825],
		"max":[0.9999688267707825,
		0.9999688267707825,
		0.9999688267707825]
	},
	{
		"bufferView":3,
		"type":"VEC2",
		"byteOffset":24,
		"componentType":5126,
		"count":10763,
		"min":[0.0019529999699443579,
		0.5019549131393433],
		"max":[0.9942899942398071,
		0.9980469942092896]
	},
	{
		"bufferView":4,
		"type":"SCALAR",
		"byteOffset":0,
		"componentType":5123,
		"count":8250,
		"min":[0],
		"max":[1434]
	},
	{
		"bufferView":5,
		"type":"VEC3",
		"byteOffset":0,
		"componentType":5126,
		"count":1435,
		"min":[-0.9794806241989136,
		0.4716654121875763,
		-0.7197219133377075],
		"max":[-0.6809031963348389,
		3.376183271408081,
		1.5400930643081666]
	},
	{
		"bufferView":5,
		"type":"VEC3",
		"byteOffset":12,
		"componentType":5126,
		"count":1435,
		"min":[-0.9999688267707825,
		-0.9996563196182251,
		-0.9975938200950623],
		"max":[0.9368438124656677,
		0.9973750710487366,
		0.9979375600814819]
	},
	{
		"bufferView":5,
		"type":"VEC2",
		"byteOffset":24,
		"componentType":5126,
		"count":1435,
		"min":[0.006266999989748001,
		0.014910999685525895],
		"max":[0.9931089878082275,
		1.0088379383087159]
	},
	{
		"bufferView":6,
		"type":"SCALAR",
		"byteOffset":0,
		"componentType":5123,
		"count":57780,
		"min":[0],
		"max":[9919]
	},
	{
		"bufferView":7,
		"type":"VEC3",
		"byteOffset":0,
		"componentType":5126,
		"count":9920,
		"min":[-0.5053786039352417,
		4.834235668182373,
		0.04781720042228699],
		"max":[0.5107911825180054,
		5.763075351715088,
		1.0597440004348755]
	},
	{
		"bufferView":7,
		"type":"VEC3",
		"byteOffset":12,
		"componentType":5126,
		"count":9920,
		"min":[-0.9998750686645508,
		-0.9999688267707825,
		-0.9996563196182251],
		"max":[0.9998750686645508,
		1.0,
		0.9996563196182251]
	},
	{
		"bufferView":7,
		"type":"VEC2",
		"byteOffset":24,
		"componentType":5126,
		"count":9920,
		"min":[0.6598770022392273,
		0.5904989242553711],
		"max":[0.9947490096092224,
		0.9397369623184204]
	},
	{
		"bufferView":8,
		"type":"SCALAR",
		"byteOffset":0,
		"componentType":5123,
		"count":44904,
		"min":[0],
		"max":[7943]
	},
	{
		"bufferView":9,
		"type":"VEC3",
		"byteOffset":0,
		"componentType":5126,
		"count":7944,
		"min":[-0.5391011834144592,
		4.52894926071167,
		0.04065079987049103],
		"max":[0.5391011834144592,
		5.390130519866943,
		1.1059163808822632]
	},
	{
		"bufferView":9,
		"type":"VEC3",
		"byteOffset":12,
		"componentType":5126,
		"count":7944,
		"min":[-1.0,
		-1.0,
		-1.0],
		"max":[1.0,
		1.0,
		1.0]
	},
	{
		"bufferView":9,
		"type":"VEC2",
		"byteOffset":24,
		"componentType":5126,
		"count":7944,
		"min":[0.0,
		0.0],
		"max":[1.0,
		1.0]
	}],
	"bufferViews":[{
		"buffer":0,
		"byteOffset":0,
		"byteLength":16500,
		"target":34963
	},
	{
		"buffer":0,
		"byteOffset":16500,
		"byteLength":45920,
		"target":34962,
		"byteStride":32
	},
	{
		"buffer":1,
		"byteOffset":0,
		"byteLength":127728,
		"target":34963
	},
	{
		"buffer":1,
		"byteOffset":127728,
		"byteLength":344416,
		"target":34962,
		"byteStride":32
	},
	{
		"buffer":2,
		"byteOffset":0,
		"byteLength":16500,
		"target":34963
	},
	{
		"buffer":2,
		"byteOffset":16500,
		"byteLength":45920,
		"target":34962,
		"byteStride":32
	},
	{
		"buffer":3,
		"byteOffset":0,
		"byteLength":115560,
		"target":34963
	},
	{
		"buffer":3,
		"byteOffset":115560,
		"byteLength":317440,
		"target":34962,
		"byteStride":32
	},
	{
		"buffer":4,
		"byteOffset":0,
		"byteLength":89808,
		"target":34963
	},
	{
		"buffer":4,
		"byteOffset":89808,
		"byteLength":254208,
		"target":34962,
		"byteStride":32
	}],
	"buffers":[{
		"uri":"data:application/octet-stream;base64,",
		"byteLength":62420
	},
	{
		"uri":"data:application/octet-stream;base64,",
		"byteLength":472144
	},
	{
		"uri":"data:application/octet-stream;base64,",
		"byteLength":62420
	},
	{
		"uri":"data:application/octet-stream;base64,",
		"byteLength":433000
	},
	{
		"uri":"data:application/octet-stream;base64,",
		"byteLength":344016
	}],
	"images":[{
		"uri":"data:image/jpeg;base64,"
	},
	{
		"uri":"data:image/jpeg;base64,"
	}],
	"samplers":[{
		"magFilter":9729,
		"minFilter":9729,
		"wrapS":10497,
		"wrapT":10497
	},
	{
		"magFilter":9729,
		"minFilter":9729,
		"wrapS":10497,
		"wrapT":10497
	}],
	"textures":[{
		"sampler":0,
		"source":0
	},
	{
		"sampler":1,
		"source":1
	}]
}